<svg width="26" height="24" viewBox="0 0 26 24" fill="none" xmlns="http://www.w3.org/2000/svg">
<path fill-rule="evenodd" clip-rule="evenodd" d="M19.6644 15.254L24.8253 18.489C25.4979 18.905 25.7008 19.746 25.2849 20.394L23.9869 22.421C23.5876 23.0567 22.9422 23.5225 22.1858 23.721C21.5348 23.8864 20.8632 23.9688 20.1889 23.966C17.2579 23.966 12.9949 22.518 7.26798 17.136C0.0686626 10.368 -0.516474 5.77501 0.261226 3.11301C0.472727 2.40215 0.968242 1.79559 1.64428 1.42001L3.80077 0.202013C4.48764 -0.186642 5.37826 0.00149339 5.82216 0.629013L9.25851 5.47601C9.69388 6.09261 9.55114 6.92028 8.93083 7.37601L7.00201 8.78901C6.74521 8.97078 6.67229 9.30367 6.83178 9.56601L6.98818 9.83501C7.91 11.4208 9.10578 12.8517 10.5267 14.069C11.8214 15.4064 13.3445 16.5312 15.0333 17.397L15.3195 17.545C15.5986 17.6925 15.9508 17.6228 16.1429 17.382L17.643 15.562C18.1276 14.9785 19.0085 14.8443 19.6644 15.254ZM23.2526 22.0115L24.5474 19.9825C24.7288 19.7029 24.6434 19.3385 24.3537 19.1565L19.1928 15.9215C18.9086 15.7447 18.5277 15.8026 18.3172 16.0545L16.814 17.8705C16.3638 18.4222 15.5511 18.5797 14.9054 18.2405L14.6266 18.0955C12.8666 17.1947 11.2785 16.0247 9.92745 14.6335C8.44705 13.3638 7.20225 11.871 6.24427 10.2165L6.09107 9.95446C5.73013 9.34755 5.89775 8.58362 6.48471 8.16047L8.4146 6.74746C8.68257 6.54962 8.74413 6.19158 8.5561 5.92446L6.98687 3.71246L5.11655 1.07346C4.924 0.801356 4.53774 0.719842 4.23991 0.888465L2.08129 2.10546C1.59117 2.37489 1.23091 2.81205 1.07592 3.32546C0.358858 5.78246 0.95357 10.0775 7.86457 16.5745C14.7756 23.0715 19.3428 23.6305 21.9568 22.9555C22.5022 22.8098 22.9665 22.4716 23.2526 22.0115Z" fill="black"/>
<path d="M14.4428 3.99627C18.43 4.00177 21.6607 7.03854 21.6666 10.7863C21.6666 11.0072 21.8571 11.1863 22.0921 11.1863C22.3272 11.1863 22.5177 11.0072 22.5177 10.7863C22.5112 6.59749 18.9002 3.20332 14.4439 3.19727C14.2088 3.19727 14.0183 3.37635 14.0183 3.59727C14.0183 3.81818 14.2088 3.99727 14.4439 3.99727L14.4428 3.99627Z" fill="black"/>
<path d="M14.443 6.39273C17.0233 6.39603 19.1142 8.36136 19.1177 10.7867C19.1177 11.0076 19.3082 11.1867 19.5432 11.1867C19.7783 11.1867 19.9688 11.0076 19.9688 10.7867C19.9641 7.92109 17.4938 5.59913 14.4451 5.59473C14.2101 5.59473 14.0195 5.77381 14.0195 5.99473C14.0195 6.21564 14.2101 6.39473 14.4451 6.39473L14.443 6.39273Z" fill="black"/>
<path d="M14.4429 8.78926C15.618 8.78926 16.5707 9.68469 16.5707 10.7893C16.5707 11.0102 16.7612 11.1893 16.9962 11.1893C17.2312 11.1893 17.4218 11.0102 17.4218 10.7893C17.4218 9.24286 16.0881 7.98926 14.4429 7.98926C14.2079 7.98926 14.0173 8.16834 14.0173 8.38926C14.0173 8.61017 14.2079 8.78926 14.4429 8.78926Z" fill="black"/>
</svg>
