<svg xmlns="http://www.w3.org/2000/svg" width="24" height="24" fill="none" viewBox="0 0 24 24"><path fill="#000" fill-rule="evenodd" d="M11.9891 0.000424346C6.92481 0.000424346 0.000231136 3.83142 0.000231136 12.0004C-0.0195979 15.1891 1.23714 18.2529 3.48981 20.5076C5.74248 22.7624 8.80343 24.0203 11.9891 24.0004C21.1316 24.0004 23.978 15.9834 23.978 12.0004C24.0049 8.80965 22.7504 5.74173 20.4962 3.48543C18.242 1.22913 15.1769 -0.0265035 11.9891 0.000424346ZM9.20861 1.12988C7.7766 2.49929 6.7522 4.23948 6.24936 6.15688C5.37538 5.63664 4.57669 4.99905 3.87556 4.26188C5.3255 2.73906 7.1732 1.65394 9.20861 1.12988ZM6.03836 6.92642C5.04998 6.36367 4.14842 5.66034 3.36184 4.83842C1.77446 6.74738 0.867525 9.13116 0.784231 11.6134H5.42493C5.44626 10.0325 5.65213 8.4595 6.03836 6.92642ZM3.36184 19.1624C1.77252 17.2546 0.865325 14.8701 0.784231 12.3874H5.42393C5.44495 13.9684 5.65083 15.5414 6.03736 17.0744C5.05199 17.6412 4.15131 18.3441 3.36184 19.1624ZM6.24936 17.8496C5.37544 18.3695 4.57675 19.0068 3.87556 19.7436C5.32794 21.2636 7.17467 22.3484 9.20861 22.8766C7.77759 21.5064 6.75337 19.7665 6.24936 17.8496ZM11.6024 23.2004C9.59126 22.9454 7.85987 20.7004 6.92473 17.4744C8.37915 16.7412 9.97492 16.3318 11.6024 16.2744V23.2004ZM6.72696 16.7147C8.24842 15.9705 9.90994 15.5568 11.6024 15.5007L11.6034 12.3877H6.19445C6.21599 13.845 6.39453 15.2957 6.72696 16.7147ZM11.6024 11.617H6.19445C6.21566 10.1598 6.39386 8.70905 6.72596 7.29004C8.24843 8.03193 9.91005 8.44423 11.6024 8.50004V11.617ZM6.92473 6.53878C8.37811 7.27478 9.9745 7.68431 11.6024 7.73878V0.800781C9.59126 1.05878 7.85887 3.30078 6.92473 6.53878ZM20.618 4.83887C22.2054 6.74782 23.1124 9.13161 23.1957 11.6139H18.559C18.5379 10.0329 18.3321 8.45988 17.9455 6.92687C18.9305 6.36125 19.83 5.6582 20.617 4.83887H20.618ZM17.7297 6.15102C18.6037 5.63109 19.4023 4.99384 20.1035 4.25702H20.1025C18.6504 2.73723 16.8041 1.65235 14.7705 1.12402C16.2005 2.495 17.2246 4.23459 17.7297 6.15102ZM12.3757 0.800781C14.3869 1.05578 16.1183 3.30078 17.0534 6.52678C15.5992 7.26055 14.0033 7.66996 12.3757 7.72678V0.800781ZM17.2512 7.28613C15.7298 8.03035 14.0682 8.44407 12.3757 8.50013V11.6091H17.7847C17.7626 10.1531 17.5837 8.70376 17.2512 7.28613ZM12.3758 12.3838H17.7837C17.7616 13.8398 17.5827 15.2892 17.2502 16.7068C15.7304 15.9582 14.0679 15.5443 12.3748 15.4928L12.3758 12.3838ZM12.3757 16.2666V23.1926V23.2006C14.3869 22.9426 16.1193 20.7006 17.0534 17.4666C15.6 16.7306 14.0036 16.3211 12.3757 16.2666ZM14.7735 22.8668C16.2055 21.4974 17.2299 19.7572 17.7328 17.8398C18.6067 18.3598 19.4054 18.997 20.1066 19.7338C18.6563 21.2595 16.807 22.3468 14.7695 22.8718L14.7735 22.8668ZM20.6217 19.1573C20.6219 19.1575 20.622 19.1577 20.6222 19.1578L20.6172 19.1628C20.6187 19.161 20.6202 19.1592 20.6217 19.1573ZM20.6217 19.1573C22.2088 17.2485 23.1155 14.8649 23.1988 12.3828H18.5641C18.5428 13.9637 18.3369 15.5367 17.9506 17.0698C18.9354 17.6353 19.8348 18.3382 20.6217 19.1573Z" clip-rule="evenodd"/></svg>