<svg width="22" height="28" viewBox="0 0 22 28" fill="none" xmlns="http://www.w3.org/2000/svg">
<path fill-rule="evenodd" clip-rule="evenodd" d="M0 10.218C0.00632034 4.57649 4.77159 0.00496044 10.651 0C16.5281 0.00771423 21.29 4.57783 21.2969 10.217C21.2335 11.5683 20.9282 12.8991 20.3944 14.151C20.0433 14.9163 19.6319 15.6548 19.1635 16.36L11.8621 26.976C11.6167 27.3979 11.1525 27.6594 10.649 27.6594C10.1454 27.6594 9.68126 27.3979 9.43587 26.976L2.13438 16.361C1.66629 15.6557 1.25483 14.9172 0.903567 14.152C0.369383 12.9001 0.0637324 11.5694 0 10.218ZM18.118 15.6999C18.545 15.0564 18.9206 14.3828 19.2415 13.6849H19.2394C19.7067 12.5806 19.9786 11.4091 20.044 10.2189C19.9897 5.27682 15.799 1.29785 10.6482 1.29785C5.49742 1.29785 1.30673 5.27682 1.25248 10.2189C1.31783 11.4096 1.59011 12.5814 2.05809 13.6859C2.37839 14.3834 2.75325 15.0567 3.17947 15.6999L10.482 26.3139C10.6258 26.5239 10.6717 26.5239 10.8155 26.3139L18.118 15.6999Z" fill="black"/>
<path fill-rule="evenodd" clip-rule="evenodd" d="M5.01074 10.2176C5.01074 7.23029 7.53457 4.80859 10.6479 4.80859C13.7595 4.81245 16.281 7.23188 16.285 10.2176C16.285 13.2049 13.7612 15.6266 10.6479 15.6266C7.53457 15.6266 5.01074 13.2049 5.01074 10.2176ZM6.26344 10.2187C6.26344 12.5422 8.22642 14.4257 10.6479 14.4257C13.0681 14.423 15.0294 12.541 15.0323 10.2187C15.0323 7.89526 13.0693 6.01172 10.6479 6.01172C8.22642 6.01172 6.26344 7.89526 6.26344 10.2187Z" fill="black"/>
</svg>
